<!DOCTYPE svg PUBLIC "-//W3C//DTD SVG 1.1//EN" "http://www.w3.org/Graphics/SVG/1.1/DTD/svg11.dtd">
<!-- Uploaded to: SVG Repo, www.svgrepo.com, Transformed by: SVG Repo Mixer Tools -->
<svg xmlns="http://www.w3.org/2000/svg" xmlns:xlink="http://www.w3.org/1999/xlink" version="1.1" id="Capa_1" viewBox="0 0 503.028 503.028" xml:space="preserve" width="800px" height="800px" fill="#000000">
<g id="SVGRepo_bgCarrier" stroke-width="0"/>
<g id="SVGRepo_tracerCarrier" stroke-linecap="round" stroke-linejoin="round"/>
<g id="SVGRepo_iconCarrier"> <g> <path style="fill:#E95B2D;" d="M222.479,390.952h132.655v-70.047c0-57.226-46.393-103.618-103.62-103.618 S147.894,263.68,147.894,320.905v70.047h54.584"/> <path style="fill:#FABA45;" d="M251.514,87.106c-110.431,0-199.953,89.521-199.953,199.954v70.254h96.332v-36.409 c0-57.226,46.393-103.618,103.621-103.618s103.62,46.392,103.62,103.618v36.409h96.333v-70.254 C451.467,176.628,361.945,87.106,251.514,87.106z"/> <path style="fill:#0F2639;" d="M490.969,423.422l12.06-8.92l-44.061-59.563v-67.878c0-114.391-93.063-207.454-207.453-207.454 S44.061,172.67,44.061,287.061v67.878L0,414.502l12.06,8.92l43.354-58.607h84.98v33.638h62.084v-15h-41.375l90.412-151.528 l90.412,151.528H222.479v15h140.155v-33.638h84.98L490.969,423.422z M443.967,287.061v47.601L266.843,95.217 C365.823,103.054,443.967,186.101,443.967,287.061z M347.634,363.745l-82.318-137.963c46.485,6.714,82.318,46.809,82.318,95.123 V363.745z M59.061,287.061c0-100.96,78.144-184.007,177.124-191.844L59.061,334.661V287.061z M66.509,349.814l177.505-239.958 v100.189c-57.787,3.871-103.621,52.109-103.621,110.859v28.909H66.509z M237.712,225.782l-82.319,137.963v-42.84 C155.394,272.591,191.227,232.496,237.712,225.782z M362.634,349.814v-28.909c0-58.75-45.833-106.988-103.62-110.859V109.856 l177.505,239.958H362.634z"/> </g> </g>
</svg>